<svg width="512" height="512" viewBox="0 0 512 512" fill="none" xmlns="http://www.w3.org/2000/svg" xmlns:xlink="http://www.w3.org/1999/xlink" class=""><rect id="r4" width="512" height="512" x="0" y="0" rx="0" fill="url(#r5)" stroke="#FFFFFF" stroke-width="0" stroke-opacity="100%" paint-order="stroke"></rect><clipPath id="clip"><use xlink:href="#r4"></use></clipPath><defs><linearGradient id="r5" gradientUnits="userSpaceOnUse" gradientTransform="rotate(120)" style="transform-origin: center center;"><stop stop-color="#FF497A"></stop><stop offset="1" stop-color="#1F52FA"></stop></linearGradient><radialGradient id="r6" cx="0" cy="0" r="1" gradientUnits="userSpaceOnUse" gradientTransform="translate(256) rotate(90) scale(512)"><stop stop-color="white"></stop><stop offset="1" stop-color="white" stop-opacity="0"></stop></radialGradient></defs><svg xmlns="http://www.w3.org/2000/svg" width="400" height="400" viewBox="0 0 24 24" x="56" y="56" alignment-baseline="middle" style="color: rgb(255, 255, 255);"><path fill="currentColor" d="M13.65 4.325L17 7h2q.825 0 1.413.588T21 9v11H3V9q0-.625.55-.9t1.05.1L7 10l3.775-5.275q.5-.7 1.35-.825t1.525.425ZM5 11v3.6L8 17l4-5.5l7 5.45V9h-2.7l-3.9-3.125l-4.95 6.95L5 11Z"></path></svg></svg>